<svg width="393" height="852" viewBox="0 0 393 852" fill="none" xmlns="http://www.w3.org/2000/svg">
<rect x="-9" y="-18" width="411" height="889" fill="#40128B"/>
<rect x="-9" y="-18" width="411" height="889" fill="url(#paint0_linear_112_30)" fill-opacity="0.2"/>
<g style="mix-blend-mode:color-dodge" filter="url(#filter0_f_112_30)">
<path d="M224.5 489.5C44.1 317.1 -7.66667 71.3333 -11 -30V964H385C406.667 877.667 404.9 661.9 224.5 489.5Z" fill="url(#paint1_linear_112_30)" fill-opacity="0.3"/>
</g>
<g style="mix-blend-mode:color-dodge" filter="url(#filter1_f_112_30)">
<path d="M272.5 171C249.3 50.1999 139.5 -14.0001 87.5 -31.0001C157.333 -45.5001 299.8 -74.8001 311 -76.0001C322.2 -77.2001 456.333 -25.1668 522 0.999893C536.333 46.8332 550.9 145 494.5 171C424 203.5 301.5 322 272.5 171Z" fill="url(#paint2_linear_112_30)"/>
</g>
<defs>
<filter id="filter0_f_112_30" x="-61" y="-80" width="505.432" height="1094" filterUnits="userSpaceOnUse" color-interpolation-filters="sRGB">
<feFlood flood-opacity="0" result="BackgroundImageFix"/>
<feBlend mode="normal" in="SourceGraphic" in2="BackgroundImageFix" result="shape"/>
<feGaussianBlur stdDeviation="25" result="effect1_foregroundBlur_112_30"/>
</filter>
<filter id="filter1_f_112_30" x="67.5" y="-96.0205" width="487.504" height="361.954" filterUnits="userSpaceOnUse" color-interpolation-filters="sRGB">
<feFlood flood-opacity="0" result="BackgroundImageFix"/>
<feBlend mode="normal" in="SourceGraphic" in2="BackgroundImageFix" result="shape"/>
<feGaussianBlur stdDeviation="10" result="effect1_foregroundBlur_112_30"/>
</filter>
<linearGradient id="paint0_linear_112_30" x1="196.5" y1="-18" x2="196.5" y2="871" gradientUnits="userSpaceOnUse">
<stop stop-color="#DD58D6"/>
<stop offset="1" stop-color="#DD58D6" stop-opacity="0"/>
</linearGradient>
<linearGradient id="paint1_linear_112_30" x1="461.5" y1="-30" x2="0.500022" y2="917" gradientUnits="userSpaceOnUse">
<stop stop-color="#DD58D6"/>
<stop offset="1" stop-color="#DD58D6" stop-opacity="0"/>
</linearGradient>
<linearGradient id="paint2_linear_112_30" x1="482" y1="-63.5" x2="238.5" y2="203" gradientUnits="userSpaceOnUse">
<stop offset="0.0491816" stop-color="#34176B"/>
<stop offset="0.819681" stop-color="#4F91AF" stop-opacity="0"/>
</linearGradient>
</defs>
</svg>
