<svg width="150" height="50" viewBox="0 0 150 50" fill="none" xmlns="http://www.w3.org/2000/svg">
<path fill-rule="evenodd" clip-rule="evenodd" d="M50.8427 1.35731H70.142L70.1533 9.09399L65.4027 9.0855L76.6656 35.7906L87.7418 9.11095H82.8555V1.37992L98.2977 1.37144L98.2751 5.77987L79.6912 49.1856C75.2064 49.1969 72.2882 47.571 70.7245 44.1692L55.4179 9.11095L50.8398 9.10246L50.8427 1.35731ZM24.2987 0C37.7192 0 48.5975 10.9546 48.5975 24.4655C48.5975 37.9765 37.7192 48.9283 24.2987 48.9283C10.8783 48.9283 0 37.9765 0 24.4655C0 10.9546 10.8783 0 24.2987 0ZM24.2252 8.00532C32.6886 8.00532 39.5487 15.4564 39.5487 24.6465C39.5487 33.8395 32.6886 41.2878 24.2252 41.2878C15.759 41.2878 8.89888 33.8395 8.89888 24.6465C8.89888 15.4564 15.759 8.00532 24.2252 8.00532ZM125.701 0C139.122 0 150 10.9546 150 24.4655C150 37.9765 139.122 48.9283 125.701 48.9283C112.281 48.9283 101.403 37.9765 101.403 24.4655C101.403 10.9546 112.281 0 125.701 0ZM125.628 8.00532C134.091 8.00532 140.951 15.4564 140.951 24.6465C140.951 33.8395 134.091 41.2878 125.628 41.2878C117.162 41.2878 110.301 33.8395 110.301 24.6465C110.301 15.4564 117.162 8.00532 125.628 8.00532Z" fill="white"/>
</svg>
