<svg width="200" height="285" viewBox="0 0 200 285" fill="none" xmlns="http://www.w3.org/2000/svg">
<path fill-rule="evenodd" clip-rule="evenodd" d="M100 200C155.228 200 200 155.228 200 100C200 44.7715 155.228 0 100 0C44.7715 0 0 44.7715 0 100C0 155.228 44.7715 200 100 200ZM100 161.081C133.734 161.081 161.081 133.734 161.081 100C161.081 66.2659 133.734 38.9189 100 38.9189C66.2659 38.9189 38.9189 66.2659 38.9189 100C38.9189 133.734 66.2659 161.081 100 161.081Z" fill="white"/>
<path fill-rule="evenodd" clip-rule="evenodd" d="M100 200C155.228 200 200 155.228 200 100C200 44.7715 155.228 0 100 0C44.7715 0 0 44.7715 0 100C0 155.228 44.7715 200 100 200ZM100 161.081C133.734 161.081 161.081 133.734 161.081 100C161.081 66.2659 133.734 38.9189 100 38.9189C66.2659 38.9189 38.9189 66.2659 38.9189 100C38.9189 133.734 66.2659 161.081 100 161.081Z" fill="url(#paint0_linear_106_24)" fill-opacity="0.4"/>
<path d="M138.649 100C138.649 121.345 121.345 138.649 100 138.649C78.6549 138.649 61.3514 121.345 61.3514 100C61.3514 78.6549 78.6549 61.3514 100 61.3514C121.345 61.3514 138.649 78.6549 138.649 100Z" fill="white"/>
<path d="M138.649 100C138.649 121.345 121.345 138.649 100 138.649C78.6549 138.649 61.3514 121.345 61.3514 100C61.3514 78.6549 78.6549 61.3514 100 61.3514C121.345 61.3514 138.649 78.6549 138.649 100Z" fill="url(#paint1_linear_106_24)" fill-opacity="0.4"/>
<path fill-rule="evenodd" clip-rule="evenodd" d="M75.8427 236.357H95.142L95.1533 244.094L90.4027 244.085L101.666 270.791L112.742 244.111H107.855V236.38L123.298 236.371L123.275 240.78L104.691 284.186C100.206 284.197 97.2882 282.571 95.7245 279.169L80.4179 244.111L75.8398 244.102L75.8427 236.357ZM49.2987 235C62.7192 235 73.5975 245.955 73.5975 259.466C73.5975 272.976 62.7192 283.928 49.2987 283.928C35.8783 283.928 25 272.976 25 259.466C25 245.955 35.8783 235 49.2987 235ZM49.2252 243.005C57.6886 243.005 64.5487 250.456 64.5487 259.647C64.5487 268.839 57.6886 276.288 49.2252 276.288C40.759 276.288 33.8989 268.839 33.8989 259.647C33.8989 250.456 40.759 243.005 49.2252 243.005ZM150.701 235C164.122 235 175 245.955 175 259.466C175 272.976 164.122 283.928 150.701 283.928C137.281 283.928 126.403 272.976 126.403 259.466C126.403 245.955 137.281 235 150.701 235ZM150.628 243.005C159.091 243.005 165.951 250.456 165.951 259.647C165.951 268.839 159.091 276.288 150.628 276.288C142.162 276.288 135.301 268.839 135.301 259.647C135.301 250.456 142.162 243.005 150.628 243.005Z" fill="white"/>
<defs>
<linearGradient id="paint0_linear_106_24" x1="26" y1="9.5" x2="161" y2="209.5" gradientUnits="userSpaceOnUse">
<stop offset="0.0436452" stop-color="white"/>
<stop offset="0.25014" stop-color="#40128B" stop-opacity="0.81"/>
<stop offset="0.40682" stop-color="white"/>
<stop offset="0.587841" stop-color="white" stop-opacity="0.837991"/>
<stop offset="0.71835" stop-color="#DD58D6" stop-opacity="0.78"/>
<stop offset="0.874944" stop-color="white"/>
</linearGradient>
<linearGradient id="paint1_linear_106_24" x1="26" y1="9.5" x2="161" y2="209.5" gradientUnits="userSpaceOnUse">
<stop offset="0.0436452" stop-color="white"/>
<stop offset="0.25014" stop-color="#40128B" stop-opacity="0.81"/>
<stop offset="0.40682" stop-color="white"/>
<stop offset="0.587841" stop-color="white" stop-opacity="0.837991"/>
<stop offset="0.71835" stop-color="#DD58D6" stop-opacity="0.78"/>
<stop offset="0.874944" stop-color="white"/>
</linearGradient>
</defs>
</svg>
